<svg width="283" height="181" viewBox="0 0 283 181" fill="none" xmlns="http://www.w3.org/2000/svg">
<g clip-path="url(#clip0_2038_360)">
<rect width="283" height="181" fill="#FF0000"/>
<rect width="14.15" height="12.9286" transform="translate(226.4 38.7861)" fill="white"/>
<rect width="14.15" height="12.9286" transform="translate(240.55 51.7139)" fill="white"/>
<rect width="14.15" height="12.9286" transform="translate(254.7 51.7139)" fill="white"/>
<rect width="14.15" height="12.9286" transform="translate(141.5 12.9287)" fill="white"/>
<rect width="14.15" height="12.9286" transform="translate(155.65 51.7139)" fill="white"/>
<rect width="14.15" height="12.9286" transform="translate(169.8 77.5713)" fill="white"/>
<rect width="14.15" height="12.9286" transform="translate(183.95 12.9287)" fill="white"/>
<rect width="14.15" height="12.9286" transform="translate(212.25 12.9287)" fill="white"/>
<rect width="14.15" height="12.9286" transform="translate(212.25)" fill="white"/>
<rect width="14.15" height="12.9286" transform="translate(226.4)" fill="white"/>
<rect width="14.15" height="12.9286" transform="translate(240.55)" fill="white"/>
<rect width="14.15" height="12.9286" transform="translate(254.7)" fill="white"/>
<rect width="14.15" height="12.9286" transform="translate(240.55 12.9287)" fill="white"/>
<rect width="14.15" height="12.9286" transform="translate(254.7 12.9287)" fill="white"/>
<rect width="14.15" height="12.9286" transform="translate(268.85)" fill="white"/>
<rect width="14.15" height="12.9286" transform="translate(155.65 77.5713)" fill="white"/>
<rect width="14.15" height="12.9286" transform="translate(127.35 90.5)" fill="white"/>
<rect width="14.15" height="12.9286" transform="translate(198.1 116.357)" fill="white"/>
<rect width="14.15" height="12.9286" transform="translate(183.95 103.429)" fill="white"/>
<rect width="14.15" height="12.9286" transform="translate(169.8 116.357)" fill="white"/>
<rect width="14.15" height="12.9286" transform="translate(183.95 116.357)" fill="white"/>
<rect width="14.15" height="12.9286" transform="translate(183.95 129.286)" fill="white"/>
<rect width="14.15" height="12.9286" transform="translate(155.65 103.429)" fill="white"/>
<rect width="14.15" height="12.9286" transform="translate(198.1 77.5713)" fill="white"/>
<rect width="14.15" height="12.9286" transform="translate(183.95 51.7139)" fill="white"/>
<rect width="14.15" height="12.9286" transform="translate(169.8 38.7861)" fill="white"/>
<rect width="14.15" height="12.9286" transform="translate(212.25 51.7139)" fill="white"/>
<rect width="14.15" height="12.9286" transform="translate(226.4 90.5)" fill="white"/>
<rect width="14.15" height="12.9286" transform="translate(226.4 64.6426)" fill="white"/>
<rect width="14.15" height="12.9286" transform="translate(240.55 64.6426)" fill="white"/>
<rect width="14.15" height="12.9286" transform="translate(127.35 168.071)" fill="white"/>
<rect width="14.15" height="12.9286" transform="translate(141.5 129.286)" fill="white"/>
<rect width="14.15" height="12.9286" transform="translate(169.8 155.143)" fill="white"/>
<rect width="14.15" height="12.9286" transform="translate(183.95 155.143)" fill="white"/>
<rect width="14.15" height="12.9286" transform="translate(226.4 142.214)" fill="white"/>
<rect width="14.15" height="12.9286" transform="translate(240.55 116.357)" fill="white"/>
<rect width="14.15" height="12.9286" transform="translate(268.85 129.286)" fill="white"/>
<rect width="14.15" height="12.9286" transform="translate(268.85 103.429)" fill="white"/>
<rect width="14.15" height="12.9286" transform="translate(99.0498 116.357)" fill="white"/>
<rect width="14.15" height="12.9286" transform="translate(240.55 103.429)" fill="white"/>
<rect width="14.15" height="12.9286" transform="translate(254.7 77.5713)" fill="white"/>
<rect width="14.15" height="12.9286" transform="translate(268.85 77.5713)" fill="white"/>
<rect width="14.15" height="12.9286" transform="translate(268.85 12.9287)" fill="white"/>
<rect width="14.15" height="12.9286" transform="translate(268.85 38.7861)" fill="white"/>
<rect width="14.15" height="12.9286" transform="translate(268.85 51.7139)" fill="white"/>
<rect width="14.15" height="12.9286" transform="translate(268.85 64.6426)" fill="white"/>
<rect width="14.15" height="12.9286" transform="translate(240.55 38.7861)" fill="white"/>
<rect width="14.15" height="12.9286" transform="translate(254.7 25.8574)" fill="white"/>
<rect width="14.15" height="12.9286" transform="translate(268.85 25.8574)" fill="white"/>
<rect width="14.15" height="12.9286" transform="translate(254.7 90.5)" fill="white"/>
<rect width="14.15" height="12.9286" transform="translate(268.85 90.5)" fill="white"/>
<rect width="14.15" height="12.9286" transform="translate(268.85 116.357)" fill="white"/>
<rect width="14.15" height="12.9286" transform="translate(268.85 142.214)" fill="white"/>
<rect width="14.15" height="12.9286" transform="translate(268.85 168.071)" fill="white"/>
<rect width="14.15" height="12.9286" transform="translate(268.85 155.143)" fill="white"/>
<rect width="14.15" height="12.9286" transform="translate(240.55 142.214)" fill="white"/>
<rect width="14.15" height="12.9286" transform="translate(254.7 142.214)" fill="white"/>
<rect width="14.15" height="12.9286" transform="translate(212.25 103.429)" fill="white"/>
<rect width="14.15" height="12.9286" transform="translate(240.55 90.5)" fill="white"/>
<rect width="14.15" height="12.9286" transform="translate(254.7 155.143)" fill="white"/>
<rect width="14.15" height="12.9286" transform="translate(113.2 25.8574)" fill="white"/>
<rect width="14.15" height="12.9286" transform="translate(127.35 51.7139)" fill="white"/>
<rect width="14.15" height="12.9286" transform="translate(141.5 38.7861)" fill="white"/>
<rect width="14.15" height="12.9286" transform="translate(198.1 142.214)" fill="white"/>
<rect width="14.15" height="12.9286" transform="translate(212.25 155.143)" fill="white"/>
<rect width="14.15" height="12.9286" transform="translate(226.4 155.143)" fill="white"/>
<rect width="14.15" height="12.9286" transform="translate(240.55 155.143)" fill="white"/>
<rect width="14.15" height="12.9286" transform="translate(240.55 168.071)" fill="white"/>
<rect width="14.15" height="12.9286" transform="translate(254.7 168.071)" fill="white"/>
<rect width="14.15" height="12.9286" transform="translate(254.7 64.6426)" fill="white"/>
<rect width="14.15" height="12.9286" transform="translate(226.4 116.357)" fill="white"/>
<rect width="14.15" height="12.9286" transform="translate(254.7 116.357)" fill="white"/>
<rect width="14.15" height="12.9286" transform="translate(254.7 129.286)" fill="white"/>
<rect width="14.15" height="12.9286" transform="translate(0 90.5)" fill="white"/>
<rect width="14.15" height="12.9286" transform="translate(198.1)" fill="white"/>
<rect width="14.15" height="12.9286" transform="translate(198.1 38.7861)" fill="white"/>
<rect width="14.15" height="12.9286" transform="translate(226.4 25.8574)" fill="white"/>
<rect width="14.15" height="12.9286" transform="translate(226.4 168.071)" fill="white"/>
<rect width="14.15" height="12.9286" transform="translate(70.75 155.143)" fill="white"/>
<rect width="14.15" height="12.9286" transform="translate(127.35 12.9287)" fill="white"/>
<rect width="14.15" height="12.9286" transform="translate(169.8)" fill="white"/>
<rect width="14.15" height="12.9286" transform="translate(198.1 168.071)" fill="white"/>
<rect width="14.15" height="12.9286" transform="translate(84.9004 38.7861)" fill="white"/>
<rect width="14.15" height="12.9286" transform="translate(99.0498 38.7861)" fill="white"/>
<rect width="14.15" height="12.9286" transform="translate(42.4502 38.7861)" fill="white"/>
<rect width="14.15" height="12.9286" transform="translate(28.2998 129.286)" fill="white"/>
<rect width="14.15" height="12.9286" transform="translate(70.75 90.5)" fill="white"/>
<rect width="14.15" height="12.9286" transform="translate(99.0498 77.5713)" fill="white"/>
<rect width="14.15" height="12.9286" transform="translate(113.2 77.5713)" fill="white"/>
<rect width="14.15" height="12.9286" transform="translate(99.0498 129.286)" fill="white"/>
<rect width="14.15" height="12.9286" transform="translate(113.2 142.214)" fill="white"/>
</g>
<defs>
<clipPath id="clip0_2038_360">
<rect width="283" height="181" fill="white"/>
</clipPath>
</defs>
</svg>
