<svg xmlns="http://www.w3.org/2000/svg" width="1824" height="769" viewBox="0 0 1824 769">
  <g id="Grupo_13" data-name="Grupo 13" transform="translate(0.368 -0.112)">
    <path id="Trazado_1285" data-name="Trazado 1285" d="M0,0H1670a154,154,0,0,1,154,154V769H153A153,153,0,0,1,0,616Z" transform="translate(-0.368 0.112)" fill="#e21e1d"/>
    <path id="Trazado_1289" data-name="Trazado 1289" d="M46.992-63.279H6.408q-.267,17.622,6.408,30.438A60.011,60.011,0,0,0,30.839-11.748,76.892,76.892,0,0,0,57,.4,120.442,120.442,0,0,0,87.576,4.272q19.491,0,34.309-4.539T146.716-12.95A52.784,52.784,0,0,0,161.8-32.307a58.254,58.254,0,0,0,5.073-24.3q0-16.02-6.809-26.3a56.871,56.871,0,0,0-16.154-16.421,71.011,71.011,0,0,0-18.823-8.944q-9.479-2.8-14.819-3.871-17.889-4.539-28.969-7.476a107.456,107.456,0,0,1-17.355-5.874q-6.274-2.937-8.41-6.408a17.134,17.134,0,0,1-2.136-9.078,17.925,17.925,0,0,1,2.67-10.146,23.189,23.189,0,0,1,6.808-6.675,27.14,27.14,0,0,1,9.212-3.738A49.128,49.128,0,0,1,82.236-162.6a71.5,71.5,0,0,1,14.285,1.335,34.43,34.43,0,0,1,11.615,4.539,23.587,23.587,0,0,1,8.143,8.811,33.706,33.706,0,0,1,3.6,14.151h40.584q0-16.554-6.275-28.169a54.7,54.7,0,0,0-16.954-19.09,71.59,71.59,0,0,0-24.431-10.814,121.281,121.281,0,0,0-28.7-3.337,97.678,97.678,0,0,0-25.632,3.471,71.56,71.56,0,0,0-22.962,10.68A56.853,56.853,0,0,0,19.091-163q-6.275,10.813-6.275,25.5,0,13.083,4.94,22.294A47.152,47.152,0,0,0,30.7-99.858,71.554,71.554,0,0,0,48.861-89.845,182.55,182.55,0,0,0,69.687-83.3q10.413,2.937,20.559,5.34A129.246,129.246,0,0,1,108.4-72.357a39.175,39.175,0,0,1,12.949,8.01q4.94,4.806,4.94,12.549,0,7.209-3.738,11.882a26.214,26.214,0,0,1-9.345,7.342,41.805,41.805,0,0,1-12.015,3.6,83.509,83.509,0,0,1-12.015.934,63.724,63.724,0,0,1-16.02-2,39.876,39.876,0,0,1-13.483-6.141,30.33,30.33,0,0,1-9.212-10.813Q46.992-53.667,46.992-63.279ZM186.1-95.586q.8-13.35,6.675-22.161A45.454,45.454,0,0,1,207.726-131.9a65.156,65.156,0,0,1,20.426-7.609,116.125,116.125,0,0,1,22.829-2.27,154.713,154.713,0,0,1,21.093,1.469,64.525,64.525,0,0,1,19.491,5.74,38.4,38.4,0,0,1,14.418,11.882q5.607,7.61,5.607,20.159V-30.7a144.244,144.244,0,0,0,1.068,17.889Q313.725-4.272,316.4,0H277.947a54.4,54.4,0,0,1-1.735-6.541,56.962,56.962,0,0,1-.935-6.809A49.406,49.406,0,0,1,253.917-.267a85.734,85.734,0,0,1-25.1,3.738,67.807,67.807,0,0,1-18.423-2.4,42.191,42.191,0,0,1-14.952-7.476,34.8,34.8,0,0,1-10.012-12.816,43.331,43.331,0,0,1-3.6-18.423q0-11.748,4.138-19.357a34.6,34.6,0,0,1,10.68-12.149A47.851,47.851,0,0,1,211.6-75.962a159.618,159.618,0,0,1,16.954-3.6Q237.1-80.9,245.373-81.7a101.157,101.157,0,0,0,14.685-2.4A25.6,25.6,0,0,0,270.2-88.778q3.738-3.07,3.471-8.944,0-6.141-2-9.745a14.726,14.726,0,0,0-5.34-5.607,21.007,21.007,0,0,0-7.743-2.67,63.36,63.36,0,0,0-9.479-.667q-11.214,0-17.622,4.806t-7.476,16.02Zm87.576,28.035a17.007,17.007,0,0,1-6.007,3.337,61.358,61.358,0,0,1-7.743,2q-4.139.8-8.677,1.335t-9.078,1.335a68.469,68.469,0,0,0-8.41,2.136,24.866,24.866,0,0,0-7.209,3.6,17.134,17.134,0,0,0-4.939,5.74,18.467,18.467,0,0,0-1.869,8.811A17.835,17.835,0,0,0,221.61-30.7a14.328,14.328,0,0,0,5.073,5.474,21.41,21.41,0,0,0,7.476,2.8,47.717,47.717,0,0,0,8.811.8q11.214,0,17.355-3.738A25,25,0,0,0,269.4-34.31a28.605,28.605,0,0,0,3.6-10.546,72.454,72.454,0,0,0,.667-8.544Zm75.561-45.123V0H387.15V-112.674h26.166v-25.365H387.15v-8.277q0-8.544,3.337-12.149t11.081-3.6a116.516,116.516,0,0,1,13.884.8v-28.3q-4.806-.267-9.879-.667t-10.146-.4q-23.229,0-34.71,11.748t-11.481,30.171v10.68h-22.7v25.365Zm173.55,28.836H461.109a43.52,43.52,0,0,1,1.735-9.078,27.873,27.873,0,0,1,5.073-9.612,28.721,28.721,0,0,1,9.612-7.609q6.008-3.071,15.086-3.071,13.884,0,20.693,7.476T522.786-83.838Zm-61.677,24.03H560.7a97.453,97.453,0,0,0-2.67-30.7,75.157,75.157,0,0,0-12.148-26.166,61.28,61.28,0,0,0-21.493-18.29q-13.083-6.809-30.705-6.809a71.493,71.493,0,0,0-28.7,5.607,67.862,67.862,0,0,0-22.294,15.353,67.669,67.669,0,0,0-14.418,23.1A80.509,80.509,0,0,0,423.2-68.886a84.048,84.048,0,0,0,4.939,29.37,66.7,66.7,0,0,0,14.018,22.962A61.067,61.067,0,0,0,464.313-1.735a78.841,78.841,0,0,0,29.37,5.206q23.5,0,40.05-10.68T558.3-42.72H524.922q-1.869,6.408-10.146,12.148t-19.758,5.74q-16.02,0-24.564-8.277T461.109-59.808Zm253.116-66.75h40.584a76.838,76.838,0,0,0-9.078-29.37,71.423,71.423,0,0,0-18.289-21.493,80.591,80.591,0,0,0-25.1-13.217,96.053,96.053,0,0,0-29.771-4.539q-21.894,0-39.382,7.743a84.236,84.236,0,0,0-29.5,21.36,95.241,95.241,0,0,0-18.423,31.906,119.117,119.117,0,0,0-6.408,39.649,115.139,115.139,0,0,0,6.408,38.848A92.782,92.782,0,0,0,603.687-24.3a84.388,84.388,0,0,0,29.5,20.959q17.488,7.61,39.382,7.61a93.911,93.911,0,0,0,32.307-5.34,74.906,74.906,0,0,0,25.632-15.486,77.379,77.379,0,0,0,17.622-24.564,96.914,96.914,0,0,0,8.277-32.307H715.827q-2.4,19.224-13.216,30.972T672.573-30.7q-14.151,0-24.03-5.474a45.844,45.844,0,0,1-16.02-14.551,63.137,63.137,0,0,1-8.944-20.426,97.044,97.044,0,0,1-2.8-23.362,104.318,104.318,0,0,1,2.8-24.3,64.347,64.347,0,0,1,8.944-20.96,45.372,45.372,0,0,1,16.02-14.685q9.879-5.474,24.03-5.474a43.578,43.578,0,0,1,14.819,2.536,43.1,43.1,0,0,1,12.682,7.076,42.137,42.137,0,0,1,9.345,10.546A34.23,34.23,0,0,1,714.225-126.558ZM814.617-68.886a82.844,82.844,0,0,1,1.6-16.287,41.554,41.554,0,0,1,5.474-14.151,30.744,30.744,0,0,1,10.279-10.012q6.408-3.872,16.02-3.871t16.154,3.871a30.358,30.358,0,0,1,10.413,10.012,41.554,41.554,0,0,1,5.473,14.151,82.84,82.84,0,0,1,1.6,16.287,80.841,80.841,0,0,1-1.6,16.153,43.033,43.033,0,0,1-5.473,14.151,28.82,28.82,0,0,1-10.413,10.013q-6.542,3.738-16.154,3.738t-16.02-3.738a29.153,29.153,0,0,1-10.279-10.013,43.033,43.033,0,0,1-5.474-14.151A80.846,80.846,0,0,1,814.617-68.886Zm-37.914,0a83.643,83.643,0,0,0,5.073,29.9,64.871,64.871,0,0,0,14.418,22.828A63.071,63.071,0,0,0,818.622-1.6a80.688,80.688,0,0,0,29.37,5.073A81.763,81.763,0,0,0,877.5-1.6a62.837,62.837,0,0,0,22.562-14.551,64.872,64.872,0,0,0,14.418-22.828,83.643,83.643,0,0,0,5.073-29.9,84.738,84.738,0,0,0-5.073-30.038,64.643,64.643,0,0,0-14.418-22.962A64.346,64.346,0,0,0,877.5-136.57a79.888,79.888,0,0,0-29.5-5.207,78.84,78.84,0,0,0-29.37,5.207,64.608,64.608,0,0,0-22.428,14.685,64.642,64.642,0,0,0-14.418,22.962A84.738,84.738,0,0,0,776.7-68.886Zm265.4-.534a84.218,84.218,0,0,1-1.6,16.554,44.866,44.866,0,0,1-5.34,14.285,28.4,28.4,0,0,1-10.012,10.013q-6.275,3.738-15.62,3.738A28.173,28.173,0,0,1,994.441-28.7a33.307,33.307,0,0,1-10.413-10.146,43.75,43.75,0,0,1-6.007-14.285,70.291,70.291,0,0,1-1.869-16.02,76.111,76.111,0,0,1,1.735-16.42,43.667,43.667,0,0,1,5.607-14.018,29.554,29.554,0,0,1,10.28-9.879q6.408-3.738,15.753-3.738t15.486,3.738a30.818,30.818,0,0,1,10.013,9.746A40.132,40.132,0,0,1,1040.5-85.84,82.214,82.214,0,0,1,1042.1-69.42Zm.534,51.8V0h36.045V-190.638h-37.914v69.42h-.534a40.7,40.7,0,0,0-17.488-15.352,54.279,54.279,0,0,0-23.362-5.207q-15.219,0-26.7,6.008a57.242,57.242,0,0,0-19.091,15.886,69.743,69.743,0,0,0-11.481,22.829,93.174,93.174,0,0,0-3.872,26.833,99.193,99.193,0,0,0,3.872,27.768A73.914,73.914,0,0,0,953.59-18.823,54.669,54.669,0,0,0,972.948-2.536q11.748,6.008,27.234,6.007a58.157,58.157,0,0,0,24.43-4.939A39.11,39.11,0,0,0,1042.1-17.622Zm157.53-66.216h-61.677a43.516,43.516,0,0,1,1.735-9.078,27.874,27.874,0,0,1,5.073-9.612,28.72,28.72,0,0,1,9.612-7.609q6.008-3.071,15.085-3.071,13.884,0,20.693,7.476T1200.165-83.838Zm-61.677,24.03h99.591a97.449,97.449,0,0,0-2.67-30.7,75.157,75.157,0,0,0-12.149-26.166,61.279,61.279,0,0,0-21.493-18.29q-13.083-6.809-30.705-6.809a71.493,71.493,0,0,0-28.7,5.607,67.862,67.862,0,0,0-22.294,15.353,67.669,67.669,0,0,0-14.418,23.1,80.51,80.51,0,0,0-5.073,28.836,84.048,84.048,0,0,0,4.939,29.37,66.7,66.7,0,0,0,14.017,22.962,61.067,61.067,0,0,0,22.161,14.818,78.841,78.841,0,0,0,29.37,5.206q23.5,0,40.05-10.68t24.564-35.511H1202.3q-1.869,6.408-10.146,12.148t-19.758,5.74q-16.02,0-24.564-8.277T1138.488-59.808Zm122.019-78.231V0h37.914V-62.211a76.3,76.3,0,0,1,1.869-17.355,38,38,0,0,1,6.274-14.017,30.52,30.52,0,0,1,11.615-9.479q7.209-3.471,17.622-3.471a67.711,67.711,0,0,1,7.209.4q3.738.4,6.408.935v-35.244a29.567,29.567,0,0,0-8.277-1.335,45.276,45.276,0,0,0-13.884,2.136,50.88,50.88,0,0,0-12.549,6.008,47.229,47.229,0,0,0-10.413,9.345,46.629,46.629,0,0,0-7.209,11.882h-.534v-25.632ZM1393.74-44.856H1357.7q.534,13.884,6.274,23.1a45.814,45.814,0,0,0,14.685,14.819,62.017,62.017,0,0,0,20.426,8.01,114.384,114.384,0,0,0,23.5,2.4,117.476,117.476,0,0,0,23.1-2.27,58.553,58.553,0,0,0,20.159-7.877,43.8,43.8,0,0,0,14.284-14.818q5.474-9.212,5.474-22.828,0-9.612-3.738-16.154a34.216,34.216,0,0,0-9.879-10.947,53.137,53.137,0,0,0-14.018-7.076,160.166,160.166,0,0,0-16.153-4.539q-8.01-1.869-15.753-3.471a121.828,121.828,0,0,1-13.75-3.6,28.817,28.817,0,0,1-9.745-5.206,10.4,10.4,0,0,1-3.738-8.277,10.227,10.227,0,0,1,2.136-6.809,14.022,14.022,0,0,1,5.207-3.871,23.174,23.174,0,0,1,6.808-1.736,65.449,65.449,0,0,1,6.942-.4,37.836,37.836,0,0,1,17.622,3.871q7.476,3.872,8.277,14.818h36.045q-1.068-12.816-6.542-21.226a43.209,43.209,0,0,0-13.75-13.483,57.558,57.558,0,0,0-18.823-7.209,109.364,109.364,0,0,0-21.76-2.136,118.554,118.554,0,0,0-21.894,2,60.286,60.286,0,0,0-19.224,6.942,38.379,38.379,0,0,0-13.751,13.484q-5.206,8.544-5.206,21.894,0,9.078,3.738,15.353a32.458,32.458,0,0,0,9.879,10.413,55.2,55.2,0,0,0,14.018,6.675q7.876,2.536,16.153,4.405,20.292,4.272,31.64,8.544t11.348,12.816a14.03,14.03,0,0,1-2.4,8.41,18.21,18.21,0,0,1-6.007,5.34,28.611,28.611,0,0,1-8.01,2.937,40.553,40.553,0,0,1-8.411.934,43.367,43.367,0,0,1-10.813-1.335,28.047,28.047,0,0,1-9.212-4.139,22.163,22.163,0,0,1-6.542-7.209A20.793,20.793,0,0,1,1393.74-44.856Z" transform="translate(138.632 312.112)" fill="#fff"/>
    <path id="Trazado_1290" data-name="Trazado 1290" d="M22.011-227.766V0H72.094V-94.1h95.381v-38.918H72.094v-52.635H182.149v-42.108Zm295.394,127.6H243.716a51.993,51.993,0,0,1,2.074-10.846,33.3,33.3,0,0,1,6.061-11.484,34.314,34.314,0,0,1,11.484-9.091q7.178-3.668,18.023-3.669,16.588,0,24.723,8.932T317.405-100.166Zm-73.689,28.71H362.7a116.432,116.432,0,0,0-3.19-36.685A89.793,89.793,0,0,0,345-139.4a73.215,73.215,0,0,0-25.68-21.852q-15.631-8.135-36.685-8.135a85.417,85.417,0,0,0-34.292,6.7,81.079,81.079,0,0,0-26.637,18.343,80.848,80.848,0,0,0-17.226,27.593A96.189,96.189,0,0,0,198.418-82.3a100.416,100.416,0,0,0,5.9,35.09,79.686,79.686,0,0,0,16.747,27.434,72.961,72.961,0,0,0,26.477,17.7q15.631,6.221,35.09,6.221,28.072,0,47.85-12.76T359.832-51.04H319.957q-2.233,7.656-12.122,14.514t-23.606,6.859q-19.14,0-29.348-9.889T243.716-71.456ZM424.589-53.592H381.524Q382.162-37,389.021-26a54.736,54.736,0,0,0,17.545,17.7,74.1,74.1,0,0,0,24.4,9.57,136.662,136.662,0,0,0,28.072,2.871,140.354,140.354,0,0,0,27.594-2.712,69.957,69.957,0,0,0,24.084-9.41,52.33,52.33,0,0,0,17.067-17.7q6.54-11.006,6.539-27.274,0-11.484-4.466-19.3a40.882,40.882,0,0,0-11.8-13.079,63.488,63.488,0,0,0-16.747-8.453,191.362,191.362,0,0,0-19.3-5.423q-9.57-2.233-18.821-4.147a145.556,145.556,0,0,1-16.428-4.306,34.429,34.429,0,0,1-11.644-6.22,12.422,12.422,0,0,1-4.466-9.889,12.219,12.219,0,0,1,2.552-8.135,16.752,16.752,0,0,1,6.22-4.625,27.687,27.687,0,0,1,8.134-2.074,78.191,78.191,0,0,1,8.294-.479q12.122,0,21.054,4.626t9.889,17.7h43.065q-1.276-15.312-7.815-25.361a51.627,51.627,0,0,0-16.428-16.109,68.768,68.768,0,0,0-22.49-8.613,130.663,130.663,0,0,0-26-2.552A141.644,141.644,0,0,0,430.969-167,72.028,72.028,0,0,0,408-158.7a45.853,45.853,0,0,0-16.428,16.109q-6.221,10.208-6.22,26.158,0,10.846,4.466,18.343a38.78,38.78,0,0,0,11.8,12.441,65.951,65.951,0,0,0,16.747,7.975q9.41,3.03,19.3,5.263,24.244,5.1,37.8,10.208t13.557,15.312a16.762,16.762,0,0,1-2.871,10.049,21.757,21.757,0,0,1-7.177,6.38,34.184,34.184,0,0,1-9.57,3.509,48.451,48.451,0,0,1-10.048,1.116,51.812,51.812,0,0,1-12.919-1.595,33.509,33.509,0,0,1-11.006-4.944,26.48,26.48,0,0,1-7.815-8.613A24.843,24.843,0,0,1,424.589-53.592ZM618.222-164.923v-49.445h-45.3v49.445H545.49v30.305h27.434v97.295q0,12.441,4.147,20.1A29.553,29.553,0,0,0,588.4-5.423,47.018,47.018,0,0,0,604.983.16a132.239,132.239,0,0,0,19.938,1.435q6.7,0,13.717-.319A107.79,107.79,0,0,0,651.4,0V-35.09a63.459,63.459,0,0,1-6.7.957q-3.509.319-7.337.319-11.484,0-15.312-3.828t-3.828-15.312v-81.664H651.4v-30.305Z" transform="translate(138.632 648.112)" fill="#fff"/>
  </g>
</svg>
