<?xml version="1.0" encoding="UTF-8" standalone="no"?>
<!-- Created with Inkscape (http://www.inkscape.org/) -->

<svg
   xmlns:dc="http://purl.org/dc/elements/1.1/"
   xmlns:cc="http://creativecommons.org/ns#"
   xmlns:rdf="http://www.w3.org/1999/02/22-rdf-syntax-ns#"
   xmlns:svg="http://www.w3.org/2000/svg"
   xmlns="http://www.w3.org/2000/svg"
   xmlns:sodipodi="http://sodipodi.sourceforge.net/DTD/sodipodi-0.dtd"
   xmlns:inkscape="http://www.inkscape.org/namespaces/inkscape"
   width="614.91052"
   height="228.74609"
   id="svg7672"
   sodipodi:version="0.32"
   inkscape:version="0.92.5 (2060ec1f9f, 2020-04-08)"
   sodipodi:modified="true"
   version="1.1"
   sodipodi:docname="2_2_toplap_logo.svg"
   viewBox="0 0 576.4786 214.44947">
  <defs
     id="defs7674" />
  <sodipodi:namedview
     id="base"
     pagecolor="#ffffff"
     bordercolor="#666666"
     borderopacity="1.0"
     gridtolerance="10000"
     guidetolerance="10"
     objecttolerance="10"
     inkscape:pageopacity="0.0"
     inkscape:pageshadow="2"
     inkscape:zoom="1"
     inkscape:cx="171.22714"
     inkscape:cy="178.04291"
     inkscape:document-units="px"
     inkscape:current-layer="layer1"
     inkscape:window-width="1920"
     inkscape:window-height="1030"
     inkscape:window-x="0"
     inkscape:window-y="0"
     showgrid="false"
     fit-margin-top="0"
     fit-margin-left="0"
     fit-margin-right="0"
     fit-margin-bottom="0"
     inkscape:window-maximized="1" />
  <metadata
     id="metadata7677">
    <rdf:RDF>
      <cc:Work
         rdf:about="">
        <dc:format>image/svg+xml</dc:format>
        <dc:type
           rdf:resource="http://purl.org/dc/dcmitype/StillImage" />
        <dc:title></dc:title>
      </cc:Work>
    </rdf:RDF>
  </metadata>
  <g
     inkscape:label="Layer 1"
     inkscape:groupmode="layer"
     id="layer1"
     transform="translate(-70.760708,-317.90955)">
    <g
       id="g1110">
      <path
         id="rect5777"
         transform="scale(0.9375)"
         d="m 308.04297,339.10352 c -15.61959,0 -28.19531,12.57375 -28.19531,28.19336 v 93.39453 c 0,15.61958 12.57572,28.19336 28.19531,28.19336 h 149.78125 c 15.61958,0 28.19336,-12.57378 28.19336,-28.19336 v -93.39453 c 0,-15.61961 -12.57378,-28.19336 -28.19336,-28.19336 z m 22.9082,31.71875 h 103.96485 v 17.62109 H 330.95117 Z m 0,33.48046 h 103.96485 v 17.6211 H 330.95117 Z m 0,33.48047 h 103.96485 v 17.6211 H 330.95117 Z"
         style="stroke-width:3.52427483;stroke-linejoin:round"
         inkscape:connector-curvature="0" />
      <path
         id="rect5840"
         transform="scale(0.9375)"
         d="m 305.10547,495.60352 c -14.20654,0 -30.23146,9.44281 -35.92969,21.17187 l -14.52734,29.9043 c -5.69823,11.72906 1.15088,21.16992 15.35742,21.16992 h 77.04492 71.76563 11.87304 14.13867 51.03321 c 14.20653,0 21.05564,-9.44086 15.35742,-21.16992 l -14.52734,-29.9043 c -5.69823,-11.72906 -21.72316,-21.17187 -35.92969,-21.17187 H 383.7168 c -0.26531,0 -0.52306,0.009 -0.78321,0.0156 -0.26014,-0.007 -0.51789,-0.0156 -0.7832,-0.0156 z"
         style="stroke-width:3.34243679;stroke-linejoin:round"
         inkscape:connector-curvature="0" />
      <circle
         r="21.610645"
         cy="391.6084"
         cx="224.95558"
         id="path7596"
         style="fill:#000000;stroke-width:3.30400753;stroke-linejoin:round" />
      <circle
         r="21.610645"
         cy="391.6084"
         cx="158.66347"
         inkscape:transform-center-x="-18.73833"
         id="path7598"
         style="fill:#000000;stroke-width:3.30400753;stroke-linejoin:round" />
      <circle
         r="21.610645"
         cy="391.6084"
         cx="92.371353"
         inkscape:transform-center-x="-25.455844"
         id="path7600"
         style="fill:#000000;stroke-width:3.30400753;stroke-linejoin:round" />
      <circle
         r="21.610645"
         cy="392.77649"
         cx="625.62866"
         id="path7609"
         style="fill:#000000;stroke-width:3.30400753;stroke-linejoin:round" />
      <circle
         r="21.610645"
         cy="392.77649"
         cx="559.33655"
         inkscape:transform-center-x="-18.73833"
         id="path7611"
         style="fill:#000000;stroke-width:3.30400753;stroke-linejoin:round" />
      <circle
         r="21.610645"
         cy="392.77649"
         cx="493.04443"
         inkscape:transform-center-x="-25.455844"
         id="path7613"
         style="fill:#000000;stroke-width:3.30400753;stroke-linejoin:round" />
      <ellipse
         ry="14"
         rx="0"
         cy="498.36218"
         cx="392"
         id="path7730"
         style="fill:#000000;stroke-linejoin:round" />
    </g>
  </g>
</svg>
