<svg width="615" height="336" viewBox="0 0 615 336" fill="none" xmlns="http://www.w3.org/2000/svg">
<g clip-path="url(#clip0_2024_29)">
<path d="M232.565 0C216.945 0 204.37 12.5737 204.37 28.1934V121.588C204.37 137.207 216.945 149.781 232.565 149.781H382.346C397.966 149.781 410.54 137.207 410.54 121.588V28.1934C410.54 12.5737 397.966 0 382.346 0H232.565ZM255.473 31.7187H359.438V49.3398H255.473V31.7187ZM255.473 65.1992H359.438V82.8203H255.473V65.1992ZM255.473 98.6797H359.438V116.301H255.473V98.6797Z" fill="#D9A0FF"/>
<path d="M229.627 156.5C215.421 156.5 199.396 165.943 193.698 177.672L179.17 207.576C173.472 219.305 180.321 228.746 194.528 228.746H271.573H343.338H355.211H369.35H420.383C434.59 228.746 441.439 219.305 435.741 207.576L421.213 177.672C415.515 165.943 399.49 156.5 385.284 156.5H308.239C307.973 156.5 307.716 156.509 307.456 156.516C307.195 156.509 306.938 156.5 306.672 156.5H229.627Z" fill="#D9A0FF"/>
<path d="M164.475 101.663C177.206 101.663 187.526 91.3428 187.526 78.6119C187.526 65.881 177.206 55.5605 164.475 55.5605C151.744 55.5605 141.423 65.881 141.423 78.6119C141.423 91.3428 151.744 101.663 164.475 101.663Z" fill="#D9A0FF"/>
<path d="M93.7628 101.663C106.494 101.663 116.814 91.3428 116.814 78.6119C116.814 65.881 106.494 55.5605 93.7628 55.5605C81.0319 55.5605 70.7114 65.881 70.7114 78.6119C70.7114 91.3428 81.0319 101.663 93.7628 101.663Z" fill="#D9A0FF"/>
<path d="M23.0513 101.663C35.7823 101.663 46.1027 91.3428 46.1027 78.6119C46.1027 65.881 35.7823 55.5605 23.0513 55.5605C10.3204 55.5605 0 65.881 0 78.6119C0 91.3428 10.3204 101.663 23.0513 101.663Z" fill="#D9A0FF"/>
<path d="M591.859 102.909C604.59 102.909 614.91 92.5889 614.91 79.858C614.91 67.1271 604.59 56.8066 591.859 56.8066C579.128 56.8066 568.808 67.1271 568.808 79.858C568.808 92.5889 579.128 102.909 591.859 102.909Z" fill="#D9A0FF"/>
<path d="M521.148 102.909C533.878 102.909 544.199 92.5889 544.199 79.858C544.199 67.1271 533.878 56.8066 521.148 56.8066C508.417 56.8066 498.096 67.1271 498.096 79.858C498.096 92.5889 508.417 102.909 521.148 102.909Z" fill="#D9A0FF"/>
<path d="M450.436 102.909C463.167 102.909 473.487 92.5889 473.487 79.858C473.487 67.1271 463.167 56.8066 450.436 56.8066C437.705 56.8066 427.385 67.1271 427.385 79.858C427.385 92.5889 437.705 102.909 450.436 102.909Z" fill="#D9A0FF"/>
</g>
<path d="M63.44 269.4V313H59.84V269.4H63.44ZM44.8 271.24V267.96H78.4V271.24H44.8ZM102.831 314.12C95.7906 314.12 90.4306 312.013 86.7506 307.8C83.0706 303.533 81.2306 297.8 81.2306 290.6C81.2306 285.853 82.0306 281.747 83.6306 278.28C85.2306 274.76 87.6306 272.04 90.8306 270.12C94.0306 268.147 98.0306 267.16 102.831 267.16C109.871 267.16 115.204 269.293 118.831 273.56C122.511 277.773 124.351 283.453 124.351 290.6C124.351 295.24 123.524 299.347 121.871 302.92C120.271 306.44 117.871 309.187 114.671 311.16C111.524 313.133 107.577 314.12 102.831 314.12ZM102.831 310.68C106.831 310.68 110.137 309.853 112.751 308.2C115.417 306.493 117.417 304.147 118.751 301.16C120.137 298.12 120.831 294.6 120.831 290.6C120.831 286.547 120.164 283.027 118.831 280.04C117.551 277.053 115.551 274.733 112.831 273.08C110.164 271.427 106.831 270.6 102.831 270.6C96.9106 270.6 92.4306 272.36 89.3906 275.88C86.3506 279.4 84.8306 284.307 84.8306 290.6C84.8306 294.547 85.4706 298.04 86.7506 301.08C88.0306 304.067 90.004 306.413 92.6706 308.12C95.3906 309.827 98.7773 310.68 102.831 310.68ZM136.398 313H132.798V267.96H136.398V313ZM135.758 267.96H149.438C154.344 267.96 158.051 269.133 160.558 271.48C163.064 273.773 164.318 277.267 164.318 281.96C164.318 286.333 163.011 289.72 160.398 292.12C157.838 294.467 154.184 295.64 149.438 295.64H135.678V292.52H149.118C152.958 292.52 155.891 291.64 157.918 289.88C159.944 288.12 160.958 285.453 160.958 281.88C160.958 278.253 159.971 275.56 157.998 273.8C156.024 272.04 153.064 271.16 149.118 271.16H135.758V267.96ZM171.628 312.04V267.96H175.228V312.04H171.628ZM171.628 313V309.8H201.628V313H171.628ZM205.053 313L221.613 267.96H227.613L244.333 313H240.493L224.653 269.64L208.733 313H205.053ZM213.133 298.2L213.853 295H235.453L236.093 298.2H213.133ZM254.757 313H251.157V267.96H254.757V313ZM254.117 267.96H267.797C272.704 267.96 276.41 269.133 278.917 271.48C281.424 273.773 282.677 277.267 282.677 281.96C282.677 286.333 281.37 289.72 278.757 292.12C276.197 294.467 272.544 295.64 267.797 295.64H254.037V292.52H267.477C271.317 292.52 274.25 291.64 276.277 289.88C278.304 288.12 279.317 285.453 279.317 281.88C279.317 278.253 278.33 275.56 276.357 273.8C274.384 272.04 271.424 271.16 267.477 271.16H254.117V267.96ZM462.013 313V267.96H476.013C479.799 267.96 482.999 268.333 485.613 269.08C488.226 269.827 490.199 271.107 491.533 272.92C492.919 274.733 493.613 277.293 493.613 280.6C493.613 282.627 493.239 284.52 492.493 286.28C491.746 288.04 490.573 289.48 488.973 290.6C487.426 291.667 485.399 292.2 482.893 292.2C484.973 292.2 486.599 292.6 487.773 293.4C488.946 294.147 489.773 295.133 490.253 296.36C490.786 297.587 491.106 298.92 491.213 300.36C491.373 301.8 491.453 303.213 491.453 304.6C491.453 305.987 491.533 307.213 491.693 308.28C491.853 309.347 492.226 310.093 492.813 310.52C493.399 310.947 494.333 310.947 495.613 310.52V313.16C495.346 313.373 494.813 313.56 494.013 313.72C493.266 313.88 492.439 313.827 491.533 313.56C490.626 313.293 489.853 312.68 489.213 311.72C488.573 310.76 488.253 309.293 488.253 307.32C488.253 304.227 488.119 301.747 487.853 299.88C487.639 298.013 487.133 296.6 486.333 295.64C485.586 294.68 484.386 294.013 482.733 293.64C481.079 293.267 478.866 293.08 476.093 293.08C473.373 293.08 469.906 293.107 465.693 293.16V313H462.013ZM465.693 290.2H477.453C480.386 290.2 482.786 289.933 484.653 289.4C486.573 288.813 487.986 287.853 488.893 286.52C489.853 285.133 490.333 283.213 490.333 280.76C490.333 277.933 489.746 275.853 488.573 274.52C487.399 273.133 485.719 272.227 483.533 271.8C481.346 271.373 478.679 271.16 475.533 271.16H465.693V290.2ZM509.175 311.56V269.4H512.775V311.56H509.175ZM502.855 313V309.8H519.015V313H502.855ZM502.855 271.24V267.96H519.015V271.24H502.855ZM533.354 309.8C535.808 309.8 537.701 309.8 539.034 309.8C540.368 309.8 541.354 309.8 541.994 309.8C545.301 309.8 548.314 309.533 551.034 309C553.754 308.467 556.101 307.507 558.074 306.12C560.048 304.68 561.541 302.707 562.554 300.2C563.568 297.64 564.074 294.387 564.074 290.44C564.074 286.067 563.168 282.467 561.354 279.64C559.541 276.813 556.981 274.707 553.674 273.32C550.368 271.933 546.474 271.24 541.994 271.24H533.354V309.8ZM567.994 290.44C567.994 296.36 566.874 300.973 564.634 304.28C562.448 307.533 559.354 309.8 555.354 311.08C551.408 312.36 546.741 313 541.354 313C540.554 313 539.248 313 537.434 313C535.621 313 533.034 313 529.674 313V267.96C533.248 267.96 535.914 267.96 537.674 267.96C539.434 267.96 540.661 267.96 541.354 267.96C546.741 267.96 551.408 268.813 555.354 270.52C559.354 272.173 562.448 274.653 564.634 277.96C566.874 281.267 567.994 285.427 567.994 290.44Z" fill="#C368FF"/>
<path d="M308.874 313V267.96H323.114L333.674 309.48H333.834L344.314 267.96H358.474V313H349.994L350.554 271.64H350.474L339.674 313H327.674L317.034 271.64H316.874L317.354 313H308.874ZM364.504 313L378.904 267.96H392.264L407.064 313H398.344L385.704 271.4L373.144 313H364.504ZM374.184 300.28L374.264 293.96H397.064L397.144 300.28H374.184ZM421.417 306.28C423.337 306.28 424.804 306.28 425.817 306.28C426.884 306.28 427.63 306.28 428.057 306.28C430.724 306.28 433.097 306.067 435.177 305.64C437.257 305.16 439.044 304.36 440.537 303.24C442.084 302.067 443.23 300.44 443.977 298.36C444.777 296.28 445.177 293.613 445.177 290.36C445.177 286.947 444.484 284.12 443.097 281.88C441.71 279.587 439.737 277.88 437.177 276.76C434.617 275.587 431.577 275 428.057 275H421.417V306.28ZM453.897 290.44C453.897 296.36 452.724 300.973 450.377 304.28C448.084 307.533 444.83 309.8 440.617 311.08C436.404 312.36 431.444 313 425.737 313C424.884 313 423.497 313 421.577 313C419.657 313 416.91 313 413.337 313V267.96C417.124 267.96 419.924 267.96 421.737 267.96C423.604 267.96 424.937 267.96 425.737 267.96C431.444 267.96 436.404 268.813 440.617 270.52C444.83 272.173 448.084 274.653 450.377 277.96C452.724 281.267 453.897 285.427 453.897 290.44Z" fill="#D46FFF"/>
<defs>
<clipPath id="clip0_2024_29">
<rect width="614.911" height="228.746" fill="white"/>
</clipPath>
</defs>
</svg>
