<?xml version="1.0" encoding="UTF-8"?>
<svg id="Capa_2" data-name="Capa 2" xmlns="http://www.w3.org/2000/svg" viewBox="0 0 1588.13 188.38">
  <defs>
    <style>
      .cls-1, .cls-2 {
        fill: #e40520;
      }

      .cls-2 {
        fill-rule: evenodd;
      }
    </style>
  </defs>
  <g id="Capa_1-2" data-name="Capa 1">
    <g>
      <path class="cls-2" d="M113.29,60.07c2.1.88,3.53,2.91,3.53,5.31,0,1.28-.42,2.4-1.1,3.35l-19.26,33.09c-.44.95-1.43,1.59-2.52,1.59-1.15,0-2.16-.68-2.63-1.65l-19.14-33.06c-.7-.95-1.06-2.12-1.06-3.33,0-2.27,1.37-4.28,3.29-5.18,6.46-2.41,12.83-3.58,19.55-3.58s13.18,1.17,19.11,3.35l.24.11ZM56.81,70.9c1.4-1.11,3.46-1.26,5.16-.31.88.53,1.54,1.26,1.94,2.14l15.46,26.96c.48.73.54,1.67.13,2.47-.49.79-1.43,1.21-2.27,1.15l-31.1.06c-.92.09-1.89-.11-2.73-.6-1.63-.91-2.47-2.71-2.38-4.47.99-5.47,2.73-10.49,5.47-15.16,2.74-4.74,6.19-8.82,10.12-12.13l.19-.11ZM131.1,70.9c-1.46-1.11-3.5-1.26-5.2-.31-.88.53-1.52,1.26-1.88,2.14l-15.5,26.96c-.51.73-.58,1.67-.11,2.47.52.79,1.38,1.21,2.22,1.15l31.09.06c.95.09,1.92-.11,2.74-.6,1.63-.91,2.47-2.71,2.34-4.47-.91-5.47-2.72-10.49-5.4-15.16-2.74-4.74-6.24-8.82-10.19-12.13l-.11-.11ZM98.54,112.63v28.78h-9.18v-28.78c-4.41-.04-10.2-.04-12.32-.09l-30.6.05c-2.56.13-5.23-.45-7.67-1.83-4.63-2.7-7.1-7.64-6.92-12.63,0-.71.11-1.36.19-1.9,1.1-6.08,3.22-12.06,6.46-17.73,3.29-5.67,7.48-10.52,12.25-14.53,3.16-2.36,7.65-3.57,11.75-2.84,1.17-3.92,3.92-7.21,7.49-9,.66-.38,1.26-.7,1.81-.88,6.92-2.49,14.42-3.85,22.16-3.85s15.32,1.36,22.27,3.92c4.03,1.72,7.56,5.38,9.04,9.72,3.95-.92,8.02-.02,11.25,2.43,4.74,3.95,9.57,9.35,12.85,15.03,3.25,5.67,5.39,11.66,6.49,17.73.07.55.15,1.19.17,1.9.2,4.98-2.31,9.92-6.94,12.63-2.38,1.38-5.01,1.96-7.65,1.83l-30.59-.05c-2.12.05-7.93.05-12.32.09ZM93.94,9.41C47,9.41,8.93,47.48,8.93,94.39s38.06,85.05,85.01,85.05,85.01-38.08,85.01-85.05S140.91,9.41,93.94,9.41ZM93.94.44c51.87,0,93.98,42.06,93.98,93.95s-42.11,94-93.98,94S0,146.31,0,94.39,42.06.44,93.94.44Z"/>
      <polygon class="cls-1" points="336.6 0 382.57 94.19 428.6 0 498.1 0 498.1 188.38 428.6 188.38 428.6 94.19 382.57 188.38 336.6 94.19 336.6 188.38 267.05 188.38 267.05 0 336.6 0"/>
      <path class="cls-1" d="M635.98,28.26l-28.26,98.26h56.45l-28.19-98.26ZM520.4,188.38L574.52,0h122.9l54.07,188.38h-69.52l-8.91-30.94h-74.2l-8.9,30.94h-69.57Z"/>
      <path class="cls-2" d="M859.46,21.69c15.72,0,30.93,8.36,30.93,25.44s-13.43,30.89-30.93,30.89h-15.06V21.69h15.06ZM903.8.09c30.38,0,54.96,24.58,54.96,54.94s-24.58,54.89-54.96,54.89h-60.6v78.46h-69.53V.09h130.13Z"/>
      <polygon class="cls-1" points="982.87 0 1167.7 0 1167.7 30.95 1052.38 30.95 1052.38 78.83 1167.7 78.83 1167.7 109.74 1052.38 109.74 1052.38 188.38 982.87 188.38 982.87 0"/>
      <polygon class="cls-1" points="1472.75 157.44 1588.13 157.44 1588.13 188.38 1403.22 188.38 1403.22 0 1588.13 0 1588.13 30.95 1472.75 30.95 1472.75 78.83 1588.13 78.83 1588.13 109.74 1472.75 109.74 1472.75 157.44"/>
      <path class="cls-2" d="M1277.83,21.69c15.3,0,30.93,8.36,30.93,25.46s-13.8,30.9-30.93,30.9h-15.03V21.69h15.03ZM1377.1,139.76v1.53c0-.51.02-1.02,0-1.53ZM1377.1,141.29v47.09h-68.38v-45.55c0-.51.03-1.06.03-1.54,0-17.04-13.89-30.89-30.93-30.89h-15.03v77.98h-70.74V.09h137.96c26.03,0,47.08,21.06,47.08,47.05s-21.05,47.06-47.08,47.06c25.49,0,46.29,20.26,47.08,45.56.02.51,0,1.02,0,1.53Z"/>
    </g>
  </g>
</svg>